# xmcd CD database file
#
# Track frame offsets:
#	150
#	20885
#	41398
#	62270
#	83880
#	113040
#	131093
#	158120
#	176715
#
# Disc length: 2747 seconds
#
# Revision: 0
# Processed by: cddbd v1.5.1PL0 Copyright (c) Steve Scherf et al.
# Submitted via: CDex 1.51
#
DISCID=6f0ab909
DTITLE=原みどり - KO・KO・RO・NOTE
DYEAR=1988
DGENRE=JPop
TTITLE0=ぱじゃまのままでSTEP!
TTITLE1=宇宙空間遊泳
TTITLE2=神無月の想ひ
TTITLE3=KO・KO・ROの柔軟体操
TTITLE4=痛み
TTITLE5=too young
TTITLE6=色のないMovie
TTITLE7=四次元空間旅行
TTITLE8=強く抱きしめていてもSA・YO・NA・RA
EXTD=YEAR: 1988
EXTT0=
EXTT1=
EXTT2=
EXTT3=
EXTT4=
EXTT5=
EXTT6=
EXTT7=
EXTT8=
PLAYORDER=
